Coordinates
version=1
nRows=16
nColumns=36
inDegrees=yes

Units are S.I. units (second, meters, Newtons, ...)
If the header above contains a line with 'inDegrees', this indicates whether rotational values are in degrees (yes) or radians (no).

endheader
time	pelvis_tilt	pelvis_list	pelvis_rotation	pelvis_tx	pelvis_ty	pelvis_tz	hip_flexion_r	hip_adduction_r	hip_rotation_r	knee_angle_r	knee_angle_r_beta	ankle_angle_r	subtalar_angle_r	mtp_angle_r	hip_flexion_l	hip_adduction_l	hip_rotation_l	knee_angle_l	knee_angle_l_beta	ankle_angle_l	subtalar_angle_l	mtp_angle_l	lumbar_extension	lumbar_bending	lumbar_rotation	arm_flex_r	arm_add_r	arm_rot_r	elbow_flex_r	pro_sup_r	arm_flex_l	arm_add_l	arm_rot_l	elbow_flex_l	pro_sup_l
      1.81000000	    -13.22825489	     -1.88004001	      1.39312922	     -0.33385319	      0.81606454	     -0.58766110	     63.06802408	      3.97895582	      0.58713694	     82.32118773	      1.43677577	     30.35625922	    -18.94798744	     -7.48779728	     63.61658935	     -1.64172091	      3.11018520	     82.54063608	      1.44060587	     30.88140740	    -14.02616442	     -7.48779728	    -23.89247470	      0.89416869	     -0.83499125	     16.82180739	    -11.14635299	     -2.77140803	     81.17289243	    110.23917464	      6.07123193	    -13.02183593	     -3.78552766	     65.08641455	     91.05143491
      1.82000000	    -12.69453652	     -1.65531257	      1.55599688	     -0.32955334	      0.81564631	     -0.58863684	     62.37642419	      3.75376364	      0.77457820	     82.75982225	      1.44443139	     30.87436420	    -19.01670186	     -7.48790241	     62.82043713	     -1.32884913	      2.94885779	     82.76861048	      1.44458477	     31.39094677	    -14.00872105	     -7.48790241	    -23.50299440	      0.63347119	     -1.07328736	     18.97161890	    -12.12092936	     -1.22975836	     83.97607012	    110.55787515	      7.87108752	    -13.04032537	     -3.73748650	     67.99060003	     91.33737972
      1.83000000	    -12.09476262	     -1.53470169	      1.72684160	     -0.32500113	      0.81580119	     -0.58929045	     61.52757946	      3.63423292	      0.93200482	     83.13638216	      1.45100360	     31.65746909	    -18.61124102	     -7.48839068	     61.93300196	     -1.18970814	      2.83117861	     82.99977146	      1.44861929	     32.12867990	    -13.56320741	     -7.48839068	    -22.92360640	      0.49767401	     -2.03500461	     22.45103122	    -12.77115404	      0.95307238	     85.75597627	    110.89809594	      9.18219883	    -13.50667445	     -4.76930767	     72.00634246	     91.57085495
      1.84000000	    -11.53386213	     -1.43674051	      1.86075393	     -0.32024538	      0.81675569	     -0.58976203	     60.63712283	      3.57617183	      1.06187577	     83.33788985	      1.45452057	     31.81300221	    -18.81240334	     -7.48854683	     60.99970929	     -1.11491697	      2.70841489	     83.07512796	      1.44993451	     32.41644580	    -13.55207659	     -7.48854683	    -22.10195454	      0.37760243	     -2.14294188	     25.76086385	    -14.00024706	      2.32169695	     88.37186796	    111.16356512	     11.74374059	    -14.34957779	     -4.25216646	     75.16248536	     91.92627748
      1.85000000	    -10.97879419	     -1.27476599	      2.14489012	     -0.31544035	      0.81868359	     -0.59073853	     59.66161640	      3.21541888	      1.06132771	     83.42978424	      1.45612443	     31.93690500	    -18.89049336	     -7.48864762	     59.97340623	     -0.85738401	      2.58487043	     82.96554070	      1.44802185	     32.61945518	    -13.40723410	     -7.48864762	    -21.16230817	      0.26075120	     -2.35745619	     29.59051513	    -15.53065639	      3.68013234	     90.92730839	    111.39283220	     14.80160228	    -15.39344386	     -3.64433501	     78.44235869	     92.33535142
      1.86000000	    -10.39663397	     -1.08907003	      2.43502872	     -0.31066214	      0.82180626	     -0.59189562	     58.53114376	      2.73616714	      0.97176345	     83.27514584	      1.45342548	     32.03423668	    -18.79651094	     -7.48875411	     58.77695417	     -0.55216167	      2.46602233	     82.61165691	      1.44184541	     32.78760406	    -13.26267902	     -7.48875411	    -20.22148471	      0.16122041	     -2.69166056	     34.06396487	    -17.34311131	      5.39982922	     93.53913377	    111.58548082	     18.21804310	    -16.88261129	     -2.85777076	     81.85880082	     92.80471550
      1.87000000	     -9.82912766	     -0.95745248	      2.65498917	     -0.30578532	      0.82599118	     -0.59267316	     57.27481447	      2.43627750	      0.96271466	     82.88778205	      1.44666471	     32.07202454	    -18.67797489	     -7.48885429	     57.49716365	     -0.45072660	      2.26013334	     82.06145425	      1.43224257	     32.84015790	    -13.07877802	     -7.48885429	    -19.16878915	      0.07601954	     -2.95854013	     39.04273031	    -19.47815813	      7.46978656	     95.97138952	    111.73754111	     22.02692609	    -18.81060736	     -1.80139100	     85.36599473	     93.31229825
      1.88000000	     -9.11759693	     -0.94278655	      2.73990720	     -0.30072654	      0.83173555	     -0.59282564	     55.66397028	      2.48657505	      1.02245992	     82.11666036	      1.43320609	     32.06388223	    -18.71850920	     -7.48938836	     55.91904956	     -0.64565575	      2.07432018	     81.31031668	      1.41913274	     33.11051397	    -12.52044481	     -7.48938836	    -18.24253620	      0.10885406	     -3.65322393	     45.30726892	    -21.06899924	     10.53538158	     97.29462583	    111.09604510	     25.68643219	    -21.43773725	     -1.33195044	     89.20162296	     93.98564881
      1.89000000	     -8.56407580	     -0.84143990	      2.80044130	     -0.29554729	      0.83855024	     -0.59292089	     54.09746705	      2.50546641	      1.16470294	     81.11173384	      1.41566682	     31.81378423	    -18.90280198	     -7.48955374	     54.34559983	     -0.78665353	      1.81144037	     80.26660509	      1.40091654	     32.95737351	    -12.25387661	     -7.48955374	    -17.12474127	     -0.03320541	     -3.71859159	     51.47909093	    -23.15825219	     13.02589470	     98.91822581	    111.03978769	     30.46852355	    -24.06161286	      0.30865047	     92.24993292	     94.41712768
      1.90000000	     -8.00826925	     -0.75941489	      2.92111852	     -0.29025782	      0.84688037	     -0.59344583	     52.33675307	      2.41229832	      1.21229813	     79.76664101	      1.39219052	     31.35698340	    -19.14253383	     -7.48977214	     52.58364586	     -0.83899181	      1.58334771	     78.87005047	      1.37654206	     32.70042732	    -12.02917973	     -7.48977214	    -16.03040285	     -0.05632903	     -3.96362455	     58.36198776	    -25.10516412	     16.02287329	     99.85503089	    110.72898943	     35.53697831	    -26.83878821	      1.90105875	     95.13191403	     94.73844017
      1.91000000	     -7.54518751	     -0.68162797	      3.00114236	     -0.28481003	      0.85661980	     -0.59400625	     50.50430209	      2.26034910	      1.17805355	     78.07812686	      1.36272039	     30.77208665	    -19.28409314	     -7.49000249	     50.73445949	     -0.87933521	      1.36971723	     77.14149156	      1.34637302	     32.19949532	    -11.86800823	     -7.49000249	    -14.88897866	     -0.05581941	     -4.15081668	     65.64607874	    -26.75869519	     19.07330063	    100.40000887	    110.28827807	     40.97574913	    -29.79758015	      3.67699508	     97.80117940	     94.89488670
      1.92000000	     -7.06762190	     -0.69180111	      3.09409760	     -0.27907980	      0.86794779	     -0.59450180	     48.43759088	      2.18006980	      1.06436154	     75.97577247	      1.32602738	     29.82328675	    -19.65120552	     -7.49176554	     48.73533770	     -1.04919991	      1.14861081	     75.10414023	      1.31081453	     31.43286883	    -11.69952016	     -7.49176554	    -13.82209147	      0.03599367	     -4.33041481	     73.26120070	    -28.24083249	     22.49980317	    100.61201974	    107.75111494	     46.82347420	    -32.89182678	      5.81322216	    100.36411583	     92.93925387
      1.93000000	     -6.58679023	     -0.68318959	      3.18666346	     -0.27310430	      0.88081794	     -0.59490129	     46.18352202	      2.08517703	      0.98743695	     73.53539011	      1.28343467	     28.95188749	    -19.60703727	     -7.49193825	     46.54979878	     -1.21841430	      0.91468131	     72.71723341	      1.26915515	     30.46991242	    -11.45821586	     -7.49193825	    -12.79479363	      0.09350569	     -4.39376700	     80.97363227	    -29.81733086	     26.08769971	    100.33030308	    107.74832329	     53.24783623	    -35.96211040	      8.42620285	    102.06659072	     93.02892779
      1.94000000	     -6.18247332	     -0.72695750	      3.27860904	     -0.26679344	      0.89511642	     -0.59516434	     43.83951721	      2.01434735	      0.82105435	     70.73570232	      1.23457090	     27.69394159	    -19.55381862	     -7.49207836	     44.28615890	     -1.45876741	      0.69147165	     69.99239851	      1.22159781	     29.17482680	    -11.14090840	     -7.49207836	    -11.73400773	      0.19531630	     -4.55088740	     88.64036561	    -31.21362407	     29.86744993	     99.72595262	    107.66356382	     59.89529673	    -39.24128691	     11.44093622	    103.53680736	     93.10443863
      1.95000000	     -5.80045338	     -0.81591751	      3.37314015	     -0.26008261	      0.91105788	     -0.59539133	     41.29038718	      1.98357773	      0.58949841	     67.47629756	      1.17768356	     26.04369932	    -19.48970087	     -7.49220167	     41.84881276	     -1.76949335	      0.40452782	     66.87397516	      1.16717105	     27.52147477	    -10.74664111	     -7.49220167	    -10.66113417	      0.35910596	     -4.71480196	     96.09384234	    -32.24766352	     33.60653260	     98.53133736	    107.52661857	     66.78448810	    -42.39789326	     14.88025434	    104.58665594	     93.12787423
      1.96000000	     -5.37120129	     -0.94776962	      3.47263547	     -0.25297287	      0.92887868	     -0.59583740	     38.40759418	      1.99962655	      0.30634083	     63.58903215	      1.10983798	     23.45953875	    -20.26268000	     -7.49255018	     39.09567079	     -2.04548130	      0.14621137	     63.22220842	      1.10343570	     25.41096679	    -10.86613028	     -7.49255018	     -9.57105974	      0.43798142	     -3.98161364	    103.30546766	    -34.45738825	     37.75638162	     97.58669009	    106.89618933	     74.52146275	    -43.83040153	     19.73392499	    104.24624553	     92.42909736
